<svg width="500" height="500" viewBox="0 0 500 500" fill="none" xmlns="http://www.w3.org/2000/svg">
<g clip-path="url(#clip0_1008_39675)">
<rect y="1.00049" width="500" height="1" fill="#CCCCCC"/>
<rect y="26.0005" width="500" height="1" fill="#CCCCCC"/>
<rect y="51.0005" width="500" height="1" fill="#CCCCCC"/>
<rect y="76.0005" width="500" height="1" fill="#CCCCCC"/>
<rect y="101" width="500" height="1" fill="#CCCCCC"/>
<rect y="126" width="500" height="1" fill="#CCCCCC"/>
<rect y="151" width="500" height="1" fill="#CCCCCC"/>
<rect y="176" width="500" height="1" fill="#CCCCCC"/>
<rect y="201" width="500" height="1" fill="#CCCCCC"/>
<rect y="226" width="500" height="1" fill="#CCCCCC"/>
<rect y="251" width="500" height="1" fill="#CCCCCC"/>
<rect y="276" width="500" height="1" fill="#CCCCCC"/>
<rect y="301" width="500" height="1" fill="#CCCCCC"/>
<rect y="326" width="500" height="1" fill="#CCCCCC"/>
<rect y="351" width="500" height="1" fill="#CCCCCC"/>
<rect y="376" width="500" height="1" fill="#CCCCCC"/>
<rect y="401" width="500" height="1" fill="#CCCCCC"/>
<rect y="426" width="500" height="1" fill="#CCCCCC"/>
<rect y="451" width="500" height="1" fill="#CCCCCC"/>
<rect y="476" width="500" height="1" fill="#CCCCCC"/>
<rect x="376" y="1" width="499" height="1" transform="rotate(90 376 1)" fill="#CCCCCC"/>
<rect x="351" y="1" width="499" height="1" transform="rotate(90 351 1)" fill="#CCCCCC"/>
<rect x="326" y="1" width="499" height="1" transform="rotate(90 326 1)" fill="#CCCCCC"/>
<rect x="301" y="1" width="499" height="1" transform="rotate(90 301 1)" fill="#CCCCCC"/>
<rect x="276" y="1" width="499" height="1" transform="rotate(90 276 1)" fill="#CCCCCC"/>
<rect x="251" y="1" width="499" height="1" transform="rotate(90 251 1)" fill="#CCCCCC"/>
<rect x="226" y="1" width="499" height="1" transform="rotate(90 226 1)" fill="#CCCCCC"/>
<rect x="201" y="1" width="499" height="1" transform="rotate(90 201 1)" fill="#CCCCCC"/>
<rect x="176" y="1" width="499" height="1" transform="rotate(90 176 1)" fill="#CCCCCC"/>
<rect x="151" y="1" width="499" height="1" transform="rotate(90 151 1)" fill="#CCCCCC"/>
<rect x="126" y="1" width="499" height="1" transform="rotate(90 126 1)" fill="#CCCCCC"/>
<rect x="101" y="1" width="499" height="1" transform="rotate(90 101 1)" fill="#CCCCCC"/>
<rect x="76.0005" y="1" width="499" height="1" transform="rotate(90 76.0005 1)" fill="#CCCCCC"/>
<rect x="51.0005" y="1" width="499" height="1" transform="rotate(90 51.0005 1)" fill="#CCCCCC"/>
<rect x="26.0005" y="1" width="499" height="1" transform="rotate(90 26.0005 1)" fill="#CCCCCC"/>
<rect x="1.00049" y="1" width="499" height="1" transform="rotate(90 1.00049 1)" fill="#CCCCCC"/>
<rect x="476" y="1" width="499" height="1" transform="rotate(90 476 1)" fill="#CCCCCC"/>
<rect x="451" y="1" width="499" height="1" transform="rotate(90 451 1)" fill="#CCCCCC"/>
<rect x="426" y="1" width="499" height="1" transform="rotate(90 426 1)" fill="#CCCCCC"/>
<rect x="401" y="1" width="499" height="1" transform="rotate(90 401 1)" fill="#CCCCCC"/>
<rect x="451" y="327" width="24" height="24" fill="#E4E4E4"/>
<rect x="126" y="302" width="24" height="24" fill="#E4E4E4"/>
<rect x="151" y="52" width="24" height="24" fill="#E4E4E4"/>
<rect x="326" y="177" width="24" height="24" fill="#E4E4E4"/>
</g>
<defs>
<clipPath id="clip0_1008_39675">
<rect width="500" height="500" fill="white"/>
</clipPath>
</defs>
</svg>
